<?xml version="1.0" standalone="no"?>
<svg xmlns="http://www.w3.org/2000/svg" id="screePlot" width="820" height="600" style="position: relative;"><g class="xy-axis"><g class="axis" transform="translate(0, 520)" fill="none" font-size="10" font-family="sans-serif" text-anchor="middle"><path class="domain" stroke="currentColor" d="M80.5,6V0.5H640.5V6"></path><g class="tick" opacity="1" transform="translate(80.5,0)"><line stroke="currentColor" y2="6"></line><text fill="currentColor" y="9" dy="0.71em">0</text></g><g class="tick" opacity="1" transform="translate(150.5,0)"><line stroke="currentColor" y2="6"></line><text fill="currentColor" y="9" dy="0.71em">1</text></g><g class="tick" opacity="1" transform="translate(220.5,0)"><line stroke="currentColor" y2="6"></line><text fill="currentColor" y="9" dy="0.71em">2</text></g><g class="tick" opacity="1" transform="translate(290.5,0)"><line stroke="currentColor" y2="6"></line><text fill="currentColor" y="9" dy="0.71em">3</text></g><g class="tick" opacity="1" transform="translate(360.5,0)"><line stroke="currentColor" y2="6"></line><text fill="currentColor" y="9" dy="0.71em">4</text></g><g class="tick" opacity="1" transform="translate(430.5,0)"><line stroke="currentColor" y2="6"></line><text fill="currentColor" y="9" dy="0.71em">5</text></g><g class="tick" opacity="1" transform="translate(500.5,0)"><line stroke="currentColor" y2="6"></line><text fill="currentColor" y="9" dy="0.71em">6</text></g><g class="tick" opacity="1" transform="translate(570.5,0)"><line stroke="currentColor" y2="6"></line><text fill="currentColor" y="9" dy="0.71em">7</text></g><g class="tick" opacity="1" transform="translate(640.5,0)"><line stroke="currentColor" y2="6"></line><text fill="currentColor" y="9" dy="0.71em">8</text></g></g><g class="axis" transform="translate(80, 0)" fill="none" font-size="10" font-family="sans-serif" text-anchor="end"><path class="domain" stroke="currentColor" d="M-6,520.5H0.5V80.5H-6"></path><g class="tick" opacity="1" transform="translate(0,520.5)"><line stroke="currentColor" x2="-6"></line><text fill="currentColor" x="-9" dy="0.32em">0</text></g><g class="tick" opacity="1" transform="translate(0,457.4929009672403)"><line stroke="currentColor" x2="-6"></line><text fill="currentColor" x="-9" dy="0.32em">2</text></g><g class="tick" opacity="1" transform="translate(0,394.4858019344806)"><line stroke="currentColor" x2="-6"></line><text fill="currentColor" x="-9" dy="0.32em">4</text></g><g class="tick" opacity="1" transform="translate(0,331.4787029017209)"><line stroke="currentColor" x2="-6"></line><text fill="currentColor" x="-9" dy="0.32em">6</text></g><g class="tick" opacity="1" transform="translate(0,268.4716038689612)"><line stroke="currentColor" x2="-6"></line><text fill="currentColor" x="-9" dy="0.32em">8</text></g><g class="tick" opacity="1" transform="translate(0,205.4645048362015)"><line stroke="currentColor" x2="-6"></line><text fill="currentColor" x="-9" dy="0.32em">10</text></g><g class="tick" opacity="1" transform="translate(0,142.45740580344182)"><line stroke="currentColor" x2="-6"></line><text fill="currentColor" x="-9" dy="0.32em">12</text></g></g></g><g><text id="yAxisTitle" font-family="arial" x="-210" y="-7" transform="rotate(270 90,50)">Eigenvalues</text><text id="xAxisTitle" font-family="arial" x="300" y="590">Factor Number</text></g><path d="M150,80L220,383.115807758284L290,405.04862681698296L360,422.2134589498611L430,430.2007913955123L500,447.789366116622L570,452.28115638326466L640,459.90853053228363" stroke="black" fill="none"></path><g><circle fill="white" stroke="black" stroke-width="1.5" cx="150" cy="80" r="3.5"></circle><circle fill="white" stroke="black" stroke-width="1.5" cx="220" cy="383.115807758284" r="3.5"></circle><circle fill="white" stroke="black" stroke-width="1.5" cx="290" cy="405.04862681698296" r="3.5"></circle><circle fill="white" stroke="black" stroke-width="1.5" cx="360" cy="422.2134589498611" r="3.5"></circle><circle fill="white" stroke="black" stroke-width="1.5" cx="430" cy="430.2007913955123" r="3.5"></circle><circle fill="white" stroke="black" stroke-width="1.5" cx="500" cy="447.789366116622" r="3.5"></circle><circle fill="white" stroke="black" stroke-width="1.5" cx="570" cy="452.28115638326466" r="3.5"></circle><circle fill="white" stroke="black" stroke-width="1.5" cx="640" cy="459.90853053228363" r="3.5"></circle></g></svg>